<?xml version="1.0" encoding="UTF-8"?>
<svg id="Livello_2" data-name="Livello 2" xmlns="http://www.w3.org/2000/svg" viewBox="0 0 48 32">
  <defs>
    <style>
      .cls-1 {
        fill: #ffffff;
      }

      .cls-2 {
        fill: #2b6eb6;
      }
    </style>
  </defs>
  <g id="Payment-Methods">
    <g id="americanexpress-light-large">
      <rect class="cls-1" width="48" height="32" rx="4" ry="4"/>
      <g>
        <polygon class="cls-2" points="3.65 10.54 4.19 11.86 2.38 11.86 2.93 10.54 3.29 9.66 3.65 10.54"/>
        <path class="cls-2" d="M23.37,9.7h-1.58v1.24h1.58c.18,.03,.36-.03,.49-.15,.14-.12,.21-.29,.21-.47,0-.18-.08-.35-.21-.47-.13-.12-.31-.17-.49-.15h0Zm0,0h-1.58v1.24h1.58c.18,.03,.36-.03,.49-.15,.14-.12,.21-.29,.21-.47,0-.18-.08-.35-.21-.47-.13-.12-.31-.17-.49-.15h0Zm0,0h-1.58v1.24h1.58c.18,.03,.36-.03,.49-.15,.14-.12,.21-.29,.21-.47,0-.18-.08-.35-.21-.47-.13-.12-.31-.17-.49-.15h0Zm11.92,.84l-.29-.88h0l-.36,.88-.52,1.32h1.78l-.61-1.32Zm0,0l-.29-.88h0l-.36,.88-.52,1.32h1.78l-.61-1.32Zm-11.92-.84h-1.58v1.24h1.58c.18,.03,.36-.03,.49-.15,.14-.12,.21-.29,.21-.47,0-.18-.08-.35-.21-.47-.13-.12-.31-.17-.49-.15h0Zm0,0h-1.58v1.24h1.58c.18,.03,.36-.03,.49-.15,.14-.12,.21-.29,.21-.47,0-.18-.08-.35-.21-.47-.13-.12-.31-.17-.49-.15h0Zm11.92,.84l-.29-.88h0l-.36,.88-.52,1.32h1.78l-.61-1.32Zm0,0l-.29-.88h0l-.36,.88-.52,1.32h1.78l-.61-1.32Zm-11.92-.84h-1.58v1.24h1.58c.18,.03,.36-.03,.49-.15,.14-.12,.21-.29,.21-.47,0-.18-.08-.35-.21-.47-.13-.12-.31-.17-.49-.15h0Zm0,0h-1.58v1.24h1.58c.18,.03,.36-.03,.49-.15,.14-.12,.21-.29,.21-.47,0-.18-.08-.35-.21-.47-.13-.12-.31-.17-.49-.15h0Zm11.92,.84l-.29-.88h0l-.36,.88-.52,1.32h1.78l-.61-1.32Zm0,0l-.29-.88h0l-.36,.88-.52,1.32h1.78l-.61-1.32Zm-11.92-.84h-1.58v1.24h1.58c.18,.03,.36-.03,.49-.15,.14-.12,.21-.29,.21-.47,0-.18-.08-.35-.21-.47-.13-.12-.31-.17-.49-.15h0Zm0,0h-1.58v1.24h1.58c.18,.03,.36-.03,.49-.15,.14-.12,.21-.29,.21-.47,0-.18-.08-.35-.21-.47-.13-.12-.31-.17-.49-.15h0Zm11.92,.84l-.29-.88h0l-.36,.88-.52,1.32h1.78l-.61-1.32Zm0,0l-.29-.88h0l-.36,.88-.52,1.32h1.78l-.61-1.32Zm-11.92-.84h-1.58v1.24h1.58c.18,.03,.36-.03,.49-.15,.14-.12,.21-.29,.21-.47,0-.18-.08-.35-.21-.47-.13-.12-.31-.17-.49-.15h0Zm0,0h-1.58v1.24h1.58c.18,.03,.36-.03,.49-.15,.14-.12,.21-.29,.21-.47,0-.18-.08-.35-.21-.47-.13-.12-.31-.17-.49-.15h0Zm11.92,.84l-.29-.88h0l-.36,.88-.52,1.32h1.78l-.61-1.32Zm0,0l-.29-.88h0l-.36,.88-.52,1.32h1.78l-.61-1.32Zm-11.92-.84h-1.58v1.24h1.58c.18,.03,.36-.03,.49-.15,.14-.12,.21-.29,.21-.47,0-.18-.08-.35-.21-.47-.13-.12-.31-.17-.49-.15h0Zm18.32-2.46v1.66l-1.07-1.66h-3.14v2.1l-1-2.1h-5.34c-.9-.03-1.79,.26-2.5,.82v-.82H11l-.6,1.76-.6-1.8H5.8v2.1l-.94-2.1H1.6l-1.6,3.8v4.4H2.28l.47-1.22h1.12l.46,1.22H22.67v-1.46l1.16,1.46h4.81v-.74c.71,.5,1.55,.76,2.42,.74h2.87l.46-1.22h1.12l.49,1.22h4.9v-1.58l1,1.58h3.38V7.24h-3.59ZM5.11,14.14l-.48-1.14H2l-.48,1.18H0l2.45-5.68h1.78l2.42,5.64h-1.54Zm8.8,0h-1.32v-4.56h0l-.26,.86-1.33,3.7h-1.22l-1.28-3.7-.28-.86h0v4.56h-1.31v-5.64h2.21l1.1,3.26,.18,.62h0l.18-.62,1.12-3.26h2.21v5.64Zm5.59-4.44h-3.17v1h3.09v1.2h-3.09v1h3.17v1.2h-4.5v-5.6h4.5v1.2Zm4.59,4.44l-1.68-2h-.62v2h-1.39v-5.64h3.09c.51-.07,1.02,.09,1.41,.43s.6,.83,.59,1.35c.02,.9-.64,1.67-1.54,1.78l1.88,2.08h-1.74Zm3.39,0h-1.37v-5.64h1.37v5.64Zm3.5,0h-.08c-.74,.04-1.45-.25-1.96-.78-.5-.54-.75-1.27-.66-2v-.08c-.07-.75,.19-1.48,.72-2.02,.52-.54,1.26-.81,2-.76h1.59v1.22h-1.49c-.41-.02-.81,.14-1.09,.44s-.42,.71-.37,1.12v.08c-.05,.41,.08,.83,.36,1.13s.69,.47,1.1,.45h.43l-.55,1.2Zm5.78,0l-.48-1.14h-2.67l-.48,1.18h-1.46l2.42-5.68h1.8l2.41,5.64h-1.54Zm7.19,0h-1.6l-2.09-3.14-.36-.62h0v3.8h-1.34v-5.68h1.66l2,3,.38,.64h0v-3.68h1.4l-.05,5.68Zm-8.95-4.48h0l-.36,.88-.52,1.32h1.78l-.54-1.32-.36-.88Zm-11.58,0h-1.63v1.24h1.58c.18,.03,.36-.03,.49-.15,.14-.12,.21-.29,.21-.47-.01-.17-.09-.33-.23-.44s-.3-.16-.47-.14l.05-.04Zm0,0h-1.63v1.24h1.58c.18,.03,.36-.03,.49-.15,.14-.12,.21-.29,.21-.47-.01-.17-.09-.33-.23-.44s-.3-.16-.47-.14l.05-.04Zm11.92,.84l-.34-.84h0l-.36,.88-.52,1.32h1.78l-.56-1.36Zm0,0l-.34-.84h0l-.36,.88-.52,1.32h1.78l-.56-1.36Zm-11.97-.8h-1.58v1.24h1.58c.18,.03,.36-.03,.49-.15,.14-.12,.21-.29,.21-.47,0-.18-.08-.35-.21-.47-.13-.12-.31-.17-.49-.15h0Zm0,0h-1.58v1.24h1.58c.18,.03,.36-.03,.49-.15,.14-.12,.21-.29,.21-.47,0-.18-.08-.35-.21-.47-.13-.12-.31-.17-.49-.15h0Zm11.92,.84l-.29-.88h0l-.36,.88-.52,1.32h1.78l-.61-1.32Zm0,0l-.29-.88h0l-.36,.88-.52,1.32h1.78l-.61-1.32Zm-11.92-.84h-1.58v1.24h1.58c.18,.03,.36-.03,.49-.15,.14-.12,.21-.29,.21-.47,0-.18-.08-.35-.21-.47-.13-.12-.31-.17-.49-.15h0Zm0,0h-1.58v1.24h1.58c.18,.03,.36-.03,.49-.15,.14-.12,.21-.29,.21-.47,0-.18-.08-.35-.21-.47-.13-.12-.31-.17-.49-.15h0Zm11.92,.84l-.29-.88h0l-.36,.88-.52,1.32h1.78l-.61-1.32Zm0,0l-.29-.88h0l-.36,.88-.52,1.32h1.78l-.61-1.32Zm-11.92-.84h-1.58v1.24h1.58c.18,.03,.36-.03,.49-.15,.14-.12,.21-.29,.21-.47,0-.18-.08-.35-.21-.47-.13-.12-.31-.17-.49-.15h0Zm0,0h-1.58v1.24h1.58c.18,.03,.36-.03,.49-.15,.14-.12,.21-.29,.21-.47,0-.18-.08-.35-.21-.47-.13-.12-.31-.17-.49-.15h0Zm11.92,.84l-.29-.88h0l-.36,.88-.52,1.32h1.78l-.61-1.32Zm0,0l-.29-.88h0l-.36,.88-.52,1.32h1.78l-.61-1.32Zm-11.92-.84h-1.58v1.24h1.58c.18,.03,.36-.03,.49-.15,.14-.12,.21-.29,.21-.47,0-.18-.08-.35-.21-.47-.13-.12-.31-.17-.49-.15h0Zm0,0h-1.58v1.24h1.58c.18,.03,.36-.03,.49-.15,.14-.12,.21-.29,.21-.47,0-.18-.08-.35-.21-.47-.13-.12-.31-.17-.49-.15h0Zm0,0h-1.58v1.24h1.58c.18,.03,.36-.03,.49-.15,.14-.12,.21-.29,.21-.47,0-.18-.08-.35-.21-.47-.13-.12-.31-.17-.49-.15h0Zm0,0h-1.58v1.24h1.58c.18,.03,.36-.03,.49-.15,.14-.12,.21-.29,.21-.47,0-.18-.08-.35-.21-.47-.13-.12-.31-.17-.49-.15h0Zm0,0h-1.58v1.24h1.58c.18,.03,.36-.03,.49-.15,.14-.12,.21-.29,.21-.47,0-.18-.08-.35-.21-.47-.13-.12-.31-.17-.49-.15h0Z"/>
        <path class="cls-2" d="M24.31,20.36h-1.62v1.38h1.62c.38,0,.69-.31,.69-.69s-.31-.69-.69-.69h0Zm0,0h-1.62v1.38h1.62c.38,0,.69-.31,.69-.69s-.31-.69-.69-.69h0Zm0,0h-1.62v1.38h1.62c.38,0,.69-.31,.69-.69s-.31-.69-.69-.69h0Zm5.75,0h-1.58v1.24h1.58c.18,.03,.36-.03,.49-.15,.14-.12,.21-.29,.21-.47,0-.18-.07-.35-.21-.47s-.31-.17-.49-.15h0Zm0,0h-1.58v1.24h1.58c.18,.03,.36-.03,.49-.15,.14-.12,.21-.29,.21-.47,0-.18-.07-.35-.21-.47s-.31-.17-.49-.15h0Zm-5.75,0h-1.62v1.38h1.62c.38,0,.69-.31,.69-.69s-.31-.69-.69-.69h0Zm0,0h-1.62v1.38h1.62c.38,0,.69-.31,.69-.69s-.31-.69-.69-.69h0Zm5.75,0h-1.58v1.24h1.58c.18,.03,.36-.03,.49-.15,.14-.12,.21-.29,.21-.47,0-.18-.07-.35-.21-.47s-.31-.17-.49-.15h0Zm17.4,0h-2.46c-.2-.04-.41,.04-.52,.22-.11,.17-.11,.4,0,.57,.11,.17,.32,.26,.52,.22h1.31c.69-.07,1.35,.31,1.64,.94v-3.1l-.49,1.16Zm-17.4,0h-1.58v1.24h1.58c.18,.03,.36-.03,.49-.15,.14-.12,.21-.29,.21-.47,0-.18-.07-.35-.21-.47s-.31-.17-.49-.15h0Zm-5.75,0h-1.62v1.38h1.62c.38,0,.69-.31,.69-.69s-.31-.69-.69-.69h0Zm20.76-1.2h2.93v-1.26H18.86l-.86,1.2-.84-1.2H8.88v8.16h8.26l.86-1.22,.84,1.22h5.05v-1.84h.56c.51,0,1.01-.07,1.5-.22v2.06h3.43v-1.46l1.16,1.46h15.62c.64,.01,1.27-.16,1.82-.5v-1.9c-.28,.75-1.03,1.21-1.82,1.14h-2.87v-1.2h2.89c.2,.04,.41-.04,.52-.22,.11-.17,.11-.4,0-.57-.11-.17-.32-.26-.52-.22h-1.29c-.46,.06-.93-.09-1.27-.42-.34-.32-.52-.78-.49-1.24-.01-.51,.19-.99,.56-1.33s.88-.5,1.38-.45Zm-30.36,1.2h-3.17v1h3.11v1.18h-3.11v1h3.17v1.2h-4.53v-5.58h4.53v1.2Zm4.65,4.44l-1.36-1.8-1.41,1.8h-1.59l2.2-2.8-2.27-2.82h1.7l1.37,1.76,1.38-1.78h1.66l-2.24,2.84,2.28,2.84-1.72-.04Zm5-1.86h-1.7v1.86h-1.34v-5.64h3.11c.52-.06,1.05,.12,1.43,.48,.38,.36,.59,.87,.57,1.4,.02,.53-.2,1.05-.59,1.41-.39,.36-.92,.54-1.45,.49h-.03Zm6.39,1.86l-1.68-2h-.62v2h-1.33v-5.64h3.06c.64-.08,1.26,.19,1.65,.71s.46,1.19,.21,1.78c-.25,.59-.8,1-1.44,1.07l1.89,2.08h-1.74Zm6.58-4.44h-3.14v1h3.09v1.18h-3.09v1h3.17v1.2h-4.55v-5.58h4.55l-.03,1.2Zm3.67,4.44h-2.92v-1.2h2.92c.2,.04,.41-.04,.52-.22,.11-.17,.11-.4,0-.57-.11-.17-.32-.26-.52-.22h-1.32c-.46,.06-.93-.09-1.27-.42-.34-.32-.52-.78-.49-1.24,0-.5,.2-.98,.57-1.32,.37-.34,.87-.5,1.37-.44h2.93l-.54,1.2h-2.43c-.2-.04-.41,.04-.52,.22-.11,.17-.11,.4,0,.57,.11,.17,.32,.26,.52,.22h1.31c.46-.06,.92,.08,1.26,.39,.34,.31,.52,.76,.5,1.23,.02,.5-.18,.98-.54,1.32s-.85,.52-1.35,.48h0Zm-10.94-4.44h-1.58v1.24h1.58c.18,.03,.36-.03,.49-.15,.14-.12,.21-.29,.21-.47,0-.18-.07-.35-.21-.47s-.31-.17-.49-.15h0Zm-5.75,0h-1.62v1.38h1.62c.38,0,.69-.31,.69-.69s-.31-.69-.69-.69h0Zm0,0h-1.62v1.38h1.62c.38,0,.69-.31,.69-.69s-.31-.69-.69-.69h0Zm5.75,0h-1.58v1.24h1.58c.18,.03,.36-.03,.49-.15,.14-.12,.21-.29,.21-.47,0-.18-.07-.35-.21-.47s-.31-.17-.49-.15h0Zm0,0h-1.58v1.24h1.58c.18,.03,.36-.03,.49-.15,.14-.12,.21-.29,.21-.47,0-.18-.07-.35-.21-.47s-.31-.17-.49-.15h0Zm-5.75,0h-1.62v1.38h1.62c.38,0,.69-.31,.69-.69s-.31-.69-.69-.69h0Zm0,0h-1.62v1.38h1.62c.38,0,.69-.31,.69-.69s-.31-.69-.69-.69h0Zm5.75,0h-1.58v1.24h1.58c.18,.03,.36-.03,.49-.15,.14-.12,.21-.29,.21-.47,0-.18-.07-.35-.21-.47s-.31-.17-.49-.15h0Zm0,0h-1.58v1.24h1.58c.18,.03,.36-.03,.49-.15,.14-.12,.21-.29,.21-.47,0-.18-.07-.35-.21-.47s-.31-.17-.49-.15h0Zm-5.75,0h-1.62v1.38h1.62c.38,0,.69-.31,.69-.69s-.31-.69-.69-.69h0Z"/>
      </g>
    </g>
  </g>
</svg>