<?xml version="1.0" encoding="UTF-8"?>
<svg id="Livello_2" data-name="Livello 2" xmlns="http://www.w3.org/2000/svg" viewBox="0 0 48 32">
  <defs>
    <style>
      .cls-1 {
        fill: #ffffff;
      }

      .cls-2 {
        fill: #2a2c6b;
      }
    </style>
  </defs>
  <g id="Payment-Methods">
    <g id="visa-light-large">
      <rect class="cls-1" width="48" height="32" rx="4" ry="4"/>
      <path class="cls-2" d="M23.86,11.39l-2,9.25h-2.4l2-9.25h2.4Zm10.06,6l1.26-3.47,.73,3.47h-1.99Zm2.67,3.28h2.22l-1.94-9.25h-2c-.44,0-.83,.27-1,.68l-3.59,8.57h2.52l.49-1.38h3.01l.29,1.38Zm-6.24-3c.01-2.49-3.35-2.67-3.35-3.67,0-.33,.32-.68,1-.77,.81-.08,1.63,.06,2.36,.41l.42-2c-.72-.27-1.47-.41-2.24-.41-2.36,0-4,1.26-4,3.06,0,1.33,1.19,2.07,2.09,2.51,.9,.44,1.25,.75,1.24,1.15,0,.62-.74,.9-1.43,.91-.85,.01-1.69-.2-2.44-.6l-.43,2c.85,.33,1.75,.5,2.66,.49,2.51,0,4.16-1.24,4.17-3.16m-9.91-6.23l-3.88,9.25h-2.61l-1.91-7.39c-.03-.35-.25-.66-.57-.81-.75-.36-1.54-.62-2.36-.78l.06-.27h4.07c.55,0,1.02,.4,1.11,.94l1,5.35,2.49-6.29h2.6Z"/>
    </g>
  </g>
</svg>