<?xml version="1.0" encoding="UTF-8"?>
<svg id="Livello_2" data-name="Livello 2" xmlns="http://www.w3.org/2000/svg" viewBox="0 0 48 32">
  <defs>
    <style>
      .cls-1 {
        fill: #ffffff;
      }

      .cls-2 {
        fill: #242f65;
      }

      .cls-3 {
        fill: #253e80;
      }

      .cls-4 {
        fill: #1d9bd7;
      }
    </style>
  </defs>
  <g id="Payment-Methods">
    <g id="paypal-light-large">
      <rect class="cls-1" width="48" height="32" rx="4" ry="4"/>
      <g>
        <path class="cls-3" d="M20.34,25.32l.35-2.2h-4.46l2.56-16.26c0-.05,.03-.1,.07-.13,.04-.03,.09-.05,.14-.05h6.21c2.07,0,3.49,.43,4.24,1.28,.33,.36,.56,.79,.67,1.27,.12,.58,.12,1.17,0,1.75v.5l.35,.2c.27,.13,.51,.31,.71,.53,.31,.37,.5,.82,.57,1.29,.07,.62,.05,1.25-.08,1.86-.13,.74-.39,1.46-.77,2.11-.31,.52-.72,.98-1.21,1.33-.5,.34-1.05,.59-1.63,.73-.65,.16-1.33,.25-2,.24h-.49c-.34,0-.68,.12-.94,.34-.27,.22-.44,.54-.49,.88v.2l-.61,3.88v.15s0,.05,0,.08h-.06l-3.13,.02Z"/>
        <path class="cls-4" d="M30.8,11.08l-.06,.37c-.82,4.2-3.63,5.66-7.21,5.66h-1.82c-.44,0-.81,.32-.88,.75l-.93,5.92-.27,1.68c-.02,.13,.02,.27,.11,.37,.09,.1,.22,.16,.35,.17h3.24c.38,0,.71-.28,.77-.66v-.16l.61-3.87v-.21c.05-.38,.38-.66,.76-.66h.53c3.13,0,5.59-1.27,6.3-5,.38-1.27,.15-2.66-.64-3.73-.25-.26-.54-.47-.86-.63h0Z"/>
        <path class="cls-2" d="M29.94,10.74l-.38-.1-.42-.08c-.53-.08-1.06-.12-1.6-.11h-4.88c-.11,0-.23,.02-.33,.07-.23,.11-.39,.33-.43,.58l-1,6.57v.19c.07-.43,.44-.75,.88-.75h1.82c3.58,0,6.39-1.46,7.21-5.66l.06-.37c-.22-.11-.44-.2-.67-.28l-.26-.06Z"/>
        <path class="cls-3" d="M21.9,11.1c.04-.25,.2-.47,.43-.58,.1-.05,.22-.07,.33-.07h4.88c.54,0,1.07,.03,1.6,.11l.42,.08,.38,.1,.19,.06c.23,.08,.45,.17,.67,.28,.33-1.25,.03-2.58-.8-3.57-1-1.06-2.64-1.51-4.78-1.51h-6.22c-.44,0-.81,.32-.88,.75l-2.59,16.41c-.02,.15,.02,.31,.12,.43,.1,.12,.25,.19,.41,.19h3.84l1-6.11,1-6.57Z"/>
      </g>
    </g>
  </g>
</svg>